<svg width="100" height="99" viewBox="0 0 100 99" fill="none" xmlns="http://www.w3.org/2000/svg">
<g id="Group">
<path id="Vector" d="M4.63385 49.7411C-9.19508 63.5473 10.9698 84.9497 25.3449 71.7164C25.6503 71.4392 25.9465 71.1481 26.2427 70.8524C38.0491 59.0654 38.0491 39.9501 26.2427 28.1631L4.63385 49.7411Z" fill="#FF7000"/>
<path id="Vector_2" d="M28.196 72.8022C40.0025 61.0152 59.1491 61.0152 70.9556 72.8022C71.2518 73.0979 71.5387 73.3982 71.8164 73.6986C85.0715 88.05 63.6338 108.182 49.8049 94.3756L28.1914 72.7976L28.196 72.8022Z" fill="#FF7000"/>
<path id="Vector_3" d="M49.3409 4.62624C35.512 -9.17998 14.0743 10.9518 27.3294 25.3032C27.6071 25.6082 27.8987 25.9039 28.1949 26.1996C40.0013 37.9866 59.148 37.9866 70.9544 26.1996L49.3409 4.62624Z" fill="#FF7000"/>
<path id="Vector_4" d="M72.9232 70.8527C61.1168 59.0657 61.1168 39.9505 72.9232 28.1634C73.2194 27.8677 73.5202 27.5812 73.821 27.304C88.1961 14.0707 108.361 35.4731 94.532 49.2794L72.9186 70.8573L72.9232 70.8527Z" fill="#FF7000"/>
</g>
</svg>
