<svg width="182" height="66" viewBox="0 0 182 66" fill="none" xmlns="http://www.w3.org/2000/svg">
<g id="Group 18">
<path id="Vector" d="M8.32666 19.8549H12.2189C19.425 19.8549 23.544 16.3664 23.544 10.6461C23.544 5.37406 19.786 1.70996 12.2189 1.70996H3.49023V32.0993H8.32666V19.8549ZM8.46088 5.60047H12.3532C17.0091 5.60047 18.666 8.10481 18.666 10.7385C18.666 13.5109 16.9211 15.9228 12.3532 15.9228H8.46088V5.60047Z" fill="white"/>
<path id="Vector_2" d="M44.3147 17.7571C44.3147 12.5266 43.1947 8.72852 35.7202 8.72852C32.6332 8.72852 29.9443 9.35229 26.4546 10.4705L27.4821 13.6448C29.4953 13.1088 32.4944 12.3926 34.7807 12.3926C38.2749 12.3926 39.6171 13.557 39.6171 17.2211V18.7413C37.826 18.2515 36.1691 18.0251 34.2901 18.0251C29.3657 18.0251 25.293 20.3954 25.293 25.3117C25.293 29.826 28.9631 32.5059 33.2164 32.5059C36.2617 32.5059 37.9186 31.2537 40.0198 29.558L42.1256 32.1039H45.3468L44.3193 27.3216V17.7571H44.3147ZM39.6125 26.8734C38.7609 27.7652 36.7014 28.7956 34.7344 28.7956C32.0917 28.7956 30.5274 27.4972 30.5274 25.2193C30.5274 22.7611 32.2722 21.375 35.7202 21.375C36.9282 21.375 38.2287 21.4628 39.6125 21.8648V26.8688V26.8734Z" fill="white"/>
<path id="Vector_3" d="M51.2547 32.1046H55.9523V14.4956C57.4287 13.5577 59.5762 12.6659 61.3673 12.6659C62.441 12.6659 63.2463 13.1557 63.9637 13.6501L65.2179 9.22358C64.5468 9.0018 63.7832 8.77539 62.5752 8.77539C60.1593 8.77539 57.9193 10.1616 55.6839 11.8157L53.4438 9.22358H50.2227L51.2547 13.6917V32.1046Z" fill="white"/>
<path id="Vector_4" d="M78.6901 17.8035L87.1087 9.21848H81.9159L72.2894 19.0094V0.0605469H67.5918V32.0995H72.2894V24.2815L75.2468 21.2412L82.0964 32.0995H87.5114L78.6901 17.8035Z" fill="white"/>
<path id="Vector_5" d="M0.359375 38.3605H8.417V64.864H13.2951V38.3605H21.311V34.4746H0.359375V38.3605Z" fill="white"/>
<path id="Vector_6" d="M32.5421 41.5339C26.9004 41.5339 21.7539 45.6924 21.7539 53.4642C21.7539 61.236 26.8588 65.3067 33.2132 65.3067C36.7491 65.3067 39.7482 64.0083 41.9419 62.2663L40.8682 58.288C38.406 60.566 36.4807 61.5964 33.2132 61.5964C29.3209 61.5964 27.0809 58.6485 26.7662 54.4437H42.8815C42.9277 53.9078 42.9694 53.7738 42.9694 53.2378C42.9694 45.4198 38.4477 41.5293 32.5375 41.5293L32.5421 41.5339ZM26.9467 50.9645C27.5715 47.4344 29.5848 45.198 32.4496 45.198C35.6291 45.198 37.3739 47.342 37.8645 50.9645H26.9421H26.9467Z" fill="white"/>
<path id="Vector_7" d="M52.2815 44.5745L50.0415 41.9824H46.8203L47.8524 46.4504V64.8634H52.55V47.2544C54.0264 46.3165 56.1738 45.4247 57.9649 45.4247C59.0387 45.4247 59.8439 45.9145 60.5613 46.4089L61.8155 41.9824C61.1445 41.7606 60.3808 41.5342 59.1729 41.5342C56.757 41.5342 54.5169 42.9203 52.2815 44.5745Z" fill="white"/>
<path id="Vector_8" d="M72.2502 51.1452C69.8343 50.2535 67.7285 49.4495 67.7285 47.7029C67.7285 46.1366 69.3391 45.1986 71.5328 45.1986C73.8145 45.1524 76.1008 45.4666 78.1604 47.2085L79.0119 43.2764C76.3276 41.9365 74.1755 41.4883 70.9543 41.4883C67.8211 41.5345 63.1189 42.9207 63.1189 47.9247C63.1189 52.3928 67.2379 54.047 70.6396 55.4331C73.0555 56.4173 75.115 57.3091 75.115 58.9632C75.115 60.6174 73.6849 61.6016 70.996 61.6016C68.7559 61.6478 66.5205 61.0194 63.5215 58.9216L62.6699 62.9415C65.0442 64.4155 67.7748 65.3534 71.1302 65.3119C74.9345 65.3119 79.8126 63.5237 79.8126 58.7414C79.8126 53.9592 75.6473 52.3928 72.2456 51.1452H72.2502Z" fill="white"/>
<path id="Vector_9" d="M101.426 50.5168C101.426 45.2864 100.306 41.4883 92.8315 41.4883C89.7446 41.4883 87.0556 42.1121 83.566 43.2302L84.5934 46.4046C86.6067 45.8686 89.6057 45.1524 91.892 45.1524C95.3863 45.1524 96.7284 46.3168 96.7284 49.9809V51.501C94.9373 51.0112 93.2805 50.7848 91.4014 50.7848C86.4771 50.7848 82.4043 53.1552 82.4043 58.0715C82.4043 62.5857 86.0744 65.2657 90.3277 65.2657C93.373 65.2657 95.0299 64.0135 97.1311 62.3177L99.2369 64.8637H102.458L101.431 60.0814V50.5168H101.426ZM96.7238 59.6332C95.8722 60.525 93.8127 61.5554 91.8457 61.5554C89.2031 61.5554 87.6387 60.257 87.6387 57.979C87.6387 55.5209 89.3836 54.1347 92.8315 54.1347C94.0395 54.1347 95.34 54.2225 96.7238 54.6245V59.6286V59.6332Z" fill="white"/>
<path id="Vector_10" d="M120.456 41.5342C117.457 41.5342 115.041 42.9203 112.801 44.5745L110.561 41.9824H107.34L108.367 46.4504V64.8634H113.065V47.2082C114.588 46.224 116.869 45.1983 119.466 45.1983C122.418 45.1983 123.182 46.6722 123.182 49.9343V64.8634H127.88V49.8928C127.88 45.0227 126.089 41.5342 120.447 41.5342H120.456Z" fill="white"/>
<path id="Vector_11" d="M142.925 41.5339C137.283 41.5339 132.137 45.6924 132.137 53.4642C132.137 61.236 137.242 65.3067 143.596 65.3067C147.132 65.3067 150.131 64.0083 152.325 62.2663L151.251 58.288C148.789 60.566 146.864 61.5964 143.596 61.5964C139.704 61.5964 137.464 58.6485 137.149 54.4437H153.264C153.311 53.9078 153.352 53.7738 153.352 53.2378C153.352 45.4198 148.83 41.5293 142.92 41.5293L142.925 41.5339ZM137.329 50.9645C137.954 47.4344 139.972 45.198 142.837 45.198C146.017 45.198 147.761 47.342 148.252 50.9645H137.329Z" fill="white"/>
<path id="Vector_12" d="M165.707 51.1452C163.291 50.2535 161.186 49.4495 161.186 47.7029C161.186 46.1366 162.796 45.1986 164.99 45.1986C167.272 45.1524 169.558 45.4666 171.617 47.2085L172.469 43.2764C169.785 41.9365 167.633 41.4883 164.411 41.4883C161.278 41.5345 156.576 42.9207 156.576 47.9247C156.576 52.3928 160.695 54.047 164.097 55.4331C166.513 56.4173 168.572 57.3091 168.572 58.9632C168.572 60.6174 167.142 61.6016 164.453 61.6016C162.213 61.6478 159.978 61.0194 156.979 58.9216L156.127 62.9415C158.501 64.4155 161.232 65.3534 164.587 65.3119C168.392 65.3119 173.27 63.5237 173.27 58.7414C173.27 53.9592 169.109 52.3928 165.703 51.1452H165.707Z" fill="white"/>
<path id="Vector_13" d="M182 34.0723H177.303V38.5865H182V34.0723Z" fill="white"/>
<path id="Vector_14" d="M182 41.9824H177.303V64.8634H182V41.9824Z" fill="white"/>
</g>
</svg>
